<svg xmlns="http://www.w3.org/2000/svg" xmlns:xlink="http://www.w3.org/1999/xlink" width="80" zoomAndPan="magnify" viewBox="0 0 60 30.000001" height="40" preserveAspectRatio="xMidYMid meet" version="1.0"><defs><g/><clipPath id="5f267c4839"><path d="M 14.851562 10.335938 L 24 10.335938 L 24 19 L 14.851562 19 Z M 14.851562 10.335938 " clip-rule="nonzero"/></clipPath><clipPath id="6aca0a4194"><path d="M 22 13 L 24.285156 13 L 24.285156 17 L 22 17 Z M 22 13 " clip-rule="nonzero"/></clipPath></defs><g clip-path="url(#5f267c4839)"><path fill="#ffffff" d="M 21.007812 10.339844 C 20.011719 10.339844 19.183594 11.0625 19.027344 12.015625 L 18.777344 12.0625 C 18.488281 11.574219 17.957031 11.246094 17.34375 11.246094 C 16.425781 11.246094 15.679688 11.992188 15.679688 12.910156 C 15.679688 13.691406 16.21875 14.347656 16.945312 14.527344 L 16.945312 14.714844 L 16.609375 14.714844 L 16.605469 14.699219 L 16.207031 14.550781 L 15.925781 14.550781 L 16.371094 15.46875 L 16.53125 15.425781 L 16.625 15.277344 L 16.945312 15.277344 L 16.945312 17.359375 L 17.480469 17.359375 L 17.417969 17.820312 L 16.148438 18.0625 L 15.871094 17.921875 L 14.851562 18.117188 L 14.921875 18.6875 L 15.949219 18.496094 L 16.1875 18.253906 L 17.566406 17.957031 L 17.664062 17.359375 L 22.734375 17.359375 L 22.734375 13.898438 L 22.289062 13.898438 C 22.738281 13.53125 23.019531 12.972656 23.019531 12.347656 C 23.019531 11.238281 22.121094 10.339844 21.007812 10.339844 Z M 19.261719 13.34375 C 19.382812 13.554688 19.539062 13.746094 19.726562 13.898438 L 18.683594 13.898438 C 18.792969 13.753906 18.878906 13.585938 18.933594 13.40625 Z M 22.152344 16.660156 C 22.253906 16.660156 22.335938 16.742188 22.335938 16.839844 C 22.335938 16.941406 22.253906 17.023438 22.152344 17.023438 C 22.054688 17.023438 21.972656 16.941406 21.972656 16.839844 C 21.972656 16.742188 22.054688 16.660156 22.152344 16.660156 Z M 22.152344 16.660156 " fill-opacity="1" fill-rule="nonzero"/></g><path fill="#000000" d="M 20.980469 11.285156 C 20.417969 11.285156 19.964844 11.742188 19.964844 12.300781 C 19.964844 12.863281 20.417969 13.320312 20.980469 13.320312 C 21.542969 13.320312 21.996094 12.863281 21.996094 12.300781 C 21.996094 11.742188 21.542969 11.285156 20.980469 11.285156 Z M 20.882812 11.585938 C 20.972656 11.585938 21.046875 11.660156 21.046875 11.75 C 21.046875 11.839844 20.972656 11.914062 20.882812 11.914062 C 20.792969 11.914062 20.71875 11.839844 20.71875 11.75 C 20.71875 11.660156 20.792969 11.585938 20.882812 11.585938 Z M 21.390625 11.894531 C 21.484375 11.894531 21.558594 11.96875 21.558594 12.058594 C 21.558594 12.152344 21.484375 12.226562 21.390625 12.226562 C 21.300781 12.226562 21.226562 12.152344 21.226562 12.058594 C 21.226562 11.96875 21.300781 11.894531 21.390625 11.894531 Z M 20.492188 12.023438 C 20.585938 12.023438 20.65625 12.097656 20.65625 12.191406 C 20.65625 12.28125 20.585938 12.355469 20.492188 12.355469 C 20.402344 12.355469 20.328125 12.28125 20.328125 12.191406 C 20.328125 12.097656 20.402344 12.023438 20.492188 12.023438 Z M 21.332031 12.476562 C 21.421875 12.476562 21.496094 12.546875 21.496094 12.640625 C 21.496094 12.730469 21.421875 12.804688 21.332031 12.804688 C 21.242188 12.804688 21.167969 12.730469 21.167969 12.640625 C 21.167969 12.546875 21.242188 12.476562 21.332031 12.476562 Z M 20.722656 12.574219 C 20.8125 12.574219 20.886719 12.648438 20.886719 12.738281 C 20.886719 12.828125 20.8125 12.902344 20.722656 12.902344 C 20.632812 12.902344 20.558594 12.828125 20.558594 12.738281 C 20.558594 12.648438 20.632812 12.574219 20.722656 12.574219 Z M 20.722656 12.574219 " fill-opacity="1" fill-rule="nonzero"/><path fill="#000000" d="M 17.347656 12.011719 C 16.894531 12.011719 16.527344 12.378906 16.527344 12.835938 C 16.527344 13.289062 16.894531 13.65625 17.347656 13.65625 C 17.804688 13.65625 18.171875 13.289062 18.171875 12.835938 C 18.171875 12.378906 17.804688 12.011719 17.347656 12.011719 Z M 17.269531 12.253906 C 17.34375 12.253906 17.402344 12.3125 17.402344 12.386719 C 17.402344 12.460938 17.34375 12.519531 17.269531 12.519531 C 17.195312 12.519531 17.136719 12.460938 17.136719 12.386719 C 17.136719 12.3125 17.195312 12.253906 17.269531 12.253906 Z M 17.683594 12.503906 C 17.757812 12.503906 17.816406 12.566406 17.816406 12.636719 C 17.816406 12.710938 17.757812 12.773438 17.683594 12.773438 C 17.609375 12.773438 17.550781 12.710938 17.550781 12.636719 C 17.550781 12.566406 17.609375 12.503906 17.683594 12.503906 Z M 16.957031 12.609375 C 17.027344 12.609375 17.089844 12.671875 17.089844 12.742188 C 17.089844 12.816406 17.027344 12.878906 16.957031 12.878906 C 16.882812 12.878906 16.820312 12.816406 16.820312 12.742188 C 16.820312 12.671875 16.882812 12.609375 16.957031 12.609375 Z M 17.632812 12.972656 C 17.707031 12.972656 17.769531 13.035156 17.769531 13.105469 C 17.769531 13.179688 17.707031 13.242188 17.632812 13.242188 C 17.5625 13.242188 17.5 13.179688 17.5 13.105469 C 17.5 13.035156 17.5625 12.972656 17.632812 12.972656 Z M 17.140625 13.054688 C 17.214844 13.054688 17.273438 13.113281 17.273438 13.1875 C 17.273438 13.261719 17.214844 13.320312 17.140625 13.320312 C 17.066406 13.320312 17.007812 13.261719 17.007812 13.1875 C 17.007812 13.113281 17.066406 13.054688 17.140625 13.054688 Z M 17.140625 13.054688 " fill-opacity="1" fill-rule="nonzero"/><g clip-path="url(#6aca0a4194)"><path fill="#ffffff" d="M 24.613281 13.6875 L 23.59375 14.304688 L 22.796875 14.304688 L 22.796875 15.847656 L 23.59375 15.847656 L 24.613281 16.464844 Z M 24.613281 13.6875 " fill-opacity="1" fill-rule="nonzero"/></g><g fill="#000000" fill-opacity="1"><g transform="translate(18.541255, 17.420884)"><g><path d="M 2.285156 -2.730469 L 0.25 -2.730469 L 0.25 0 L 0.875 0 L 0.875 -1.085938 L 2.148438 -1.085938 L 2.148438 -1.617188 L 0.875 -1.617188 L 0.875 -2.199219 L 2.285156 -2.199219 Z M 2.285156 -2.730469 "/></g></g></g><g fill="#ffffff" fill-opacity="1"><g transform="translate(26.223197, 15.81903)"><g><path d="M 1.824219 0.0585938 C 2.859375 0.0585938 3.496094 -0.574219 3.496094 -1.609375 L 3.496094 -1.777344 C 3.496094 -2.8125 2.859375 -3.449219 1.824219 -3.449219 C 0.785156 -3.449219 0.148438 -2.8125 0.148438 -1.777344 L 0.148438 -1.609375 C 0.148438 -0.574219 0.785156 0.0585938 1.824219 0.0585938 Z M 1.824219 -0.613281 C 1.28125 -0.613281 0.933594 -0.960938 0.933594 -1.625 L 0.933594 -1.765625 C 0.933594 -2.425781 1.28125 -2.777344 1.824219 -2.777344 C 2.367188 -2.777344 2.710938 -2.425781 2.710938 -1.765625 L 2.710938 -1.625 C 2.710938 -0.960938 2.363281 -0.613281 1.824219 -0.613281 Z M 1.824219 -0.613281 "/></g></g></g><g fill="#ffffff" fill-opacity="1"><g transform="translate(29.866802, 15.81903)"><g><path d="M 2.65625 -1.261719 L 1.132812 -3.386719 L 0.3125 -3.386719 L 0.3125 0 L 1.035156 0 L 1.035156 -2.289062 L 2.714844 0 L 3.378906 0 L 3.378906 -3.386719 L 2.65625 -3.386719 Z M 2.65625 -1.261719 "/></g></g></g><g fill="#ffffff" fill-opacity="1"><g transform="translate(33.556822, 15.81903)"><g><path d="M 2.640625 0 L 2.640625 -0.6875 L 1.085938 -0.6875 L 1.085938 -3.386719 L 0.3125 -3.386719 L 0.3125 0 Z M 2.640625 0 "/></g></g></g><g fill="#ffffff" fill-opacity="1"><g transform="translate(36.272119, 15.81903)"><g><path d="M 1.089844 -3.386719 L 0.316406 -3.386719 L 0.316406 0 L 1.089844 0 Z M 1.089844 -3.386719 "/></g></g></g><g fill="#ffffff" fill-opacity="1"><g transform="translate(37.678504, 15.81903)"><g><path d="M 2.65625 -1.261719 L 1.132812 -3.386719 L 0.3125 -3.386719 L 0.3125 0 L 1.035156 0 L 1.035156 -2.289062 L 2.714844 0 L 3.378906 0 L 3.378906 -3.386719 L 2.65625 -3.386719 Z M 2.65625 -1.261719 "/></g></g></g><g fill="#ffffff" fill-opacity="1"><g transform="translate(41.368524, 15.81903)"><g><path d="M 2.949219 0 L 2.949219 -0.664062 L 1.078125 -0.664062 L 1.078125 -1.386719 L 2.703125 -1.386719 L 2.703125 -2.042969 L 1.078125 -2.042969 L 1.078125 -2.730469 L 2.867188 -2.730469 L 2.867188 -3.386719 L 0.3125 -3.386719 L 0.3125 0 Z M 2.949219 0 "/></g></g></g><g fill="#ffffff" fill-opacity="1"><g transform="translate(30.078091, 17.978847)"><g><path d="M 0.90625 -1.09375 L 1.046875 -1.09375 L 1.046875 0 L 0.953125 0 L 0.953125 -0.875 L 0.640625 0 L 0.53125 0 L 0.21875 -0.875 L 0.21875 0 L 0.109375 0 L 0.109375 -1.09375 L 0.265625 -1.09375 L 0.578125 -0.15625 Z M 0.90625 -1.09375 "/></g></g></g><g fill="#ffffff" fill-opacity="1"><g transform="translate(32.112496, 17.978847)"><g><path d="M 0.15625 -0.953125 C 0.226562 -1.046875 0.335938 -1.09375 0.484375 -1.09375 C 0.617188 -1.09375 0.722656 -1.046875 0.796875 -0.953125 C 0.867188 -0.859375 0.90625 -0.722656 0.90625 -0.546875 C 0.90625 -0.359375 0.867188 -0.222656 0.796875 -0.140625 C 0.722656 -0.046875 0.617188 0 0.484375 0 C 0.335938 0 0.226562 -0.046875 0.15625 -0.140625 C 0.09375 -0.222656 0.0625 -0.359375 0.0625 -0.546875 C 0.0625 -0.722656 0.09375 -0.859375 0.15625 -0.953125 Z M 0.71875 -0.875 C 0.664062 -0.945312 0.585938 -0.984375 0.484375 -0.984375 C 0.378906 -0.984375 0.300781 -0.945312 0.25 -0.875 C 0.1875 -0.800781 0.15625 -0.691406 0.15625 -0.546875 C 0.15625 -0.398438 0.1875 -0.289062 0.25 -0.21875 C 0.300781 -0.144531 0.378906 -0.109375 0.484375 -0.109375 C 0.585938 -0.109375 0.664062 -0.144531 0.71875 -0.21875 C 0.769531 -0.289062 0.796875 -0.398438 0.796875 -0.546875 C 0.796875 -0.691406 0.769531 -0.800781 0.71875 -0.875 Z M 0.71875 -0.875 "/></g></g></g><g fill="#ffffff" fill-opacity="1"><g transform="translate(33.934388, 17.978847)"><g><path d="M 0.765625 -1.09375 L 0.875 -1.09375 L 0.5 0 L 0.375 0 L 0 -1.09375 L 0.125 -1.09375 L 0.4375 -0.15625 Z M 0.765625 -1.09375 "/></g></g></g><g fill="#ffffff" fill-opacity="1"><g transform="translate(35.683996, 17.978847)"><g><path d="M 0.1875 -0.984375 L 0.078125 -0.984375 L 0.078125 -1.09375 L 0.40625 -1.09375 L 0.40625 -0.984375 L 0.296875 -0.984375 L 0.296875 -0.109375 L 0.40625 -0.109375 L 0.40625 0 L 0.078125 0 L 0.078125 -0.109375 L 0.1875 -0.109375 Z M 0.1875 -0.984375 "/></g></g></g><g fill="#ffffff" fill-opacity="1"><g transform="translate(37.02448, 17.978847)"><g><path d="M 0.21875 -0.53125 L 0.21875 -0.109375 L 0.875 -0.109375 L 0.875 0 L 0.109375 0 L 0.109375 -1.09375 L 0.859375 -1.09375 L 0.859375 -0.984375 L 0.21875 -0.984375 L 0.21875 -0.625 L 0.828125 -0.625 L 0.828125 -0.53125 Z M 0.21875 -0.53125 "/></g></g></g><g fill="#ffffff" fill-opacity="1"><g transform="translate(38.814567, 17.978847)"><g><path d="M 0.453125 -1.09375 C 0.691406 -1.09375 0.8125 -0.992188 0.8125 -0.796875 L 0.703125 -0.796875 C 0.703125 -0.921875 0.617188 -0.984375 0.453125 -0.984375 C 0.273438 -0.984375 0.1875 -0.929688 0.1875 -0.828125 C 0.1875 -0.734375 0.25 -0.671875 0.375 -0.640625 L 0.546875 -0.609375 C 0.734375 -0.566406 0.828125 -0.460938 0.828125 -0.296875 C 0.828125 -0.0976562 0.703125 0 0.453125 0 C 0.191406 0 0.0625 -0.117188 0.0625 -0.359375 L 0.171875 -0.359375 C 0.171875 -0.191406 0.265625 -0.109375 0.453125 -0.109375 C 0.628906 -0.109375 0.71875 -0.171875 0.71875 -0.296875 C 0.71875 -0.410156 0.648438 -0.484375 0.515625 -0.515625 L 0.34375 -0.546875 C 0.164062 -0.585938 0.078125 -0.679688 0.078125 -0.828125 C 0.078125 -1.003906 0.203125 -1.09375 0.453125 -1.09375 Z M 0.453125 -1.09375 "/></g></g></g></svg>